<?xml version="1.0" encoding="iso-8859-1"?>
<!-- Generator: Adobe Illustrator 19.0.0, SVG Export Plug-In . SVG Version: 6.00 Build 0)  -->
<svg version="1.1" id="Layer_1" xmlns="http://www.w3.org/2000/svg" xmlns:xlink="http://www.w3.org/1999/xlink" x="0px" y="0px"
	 viewBox="0 0 512.001 512.001" style="enable-background:new 0 0 512.001 512.001;" xml:space="preserve">
<path style="fill:#FF963C;" d="M277.486,281.349c-0.052-0.306-0.12-0.613-0.208-0.915l-7.979-28.251
	c-1.083-3.844-4.885-6.422-8.618-6.434l-112.804,1.454c-1.005,0.013-1.998,0.199-2.938,0.544
	c-40.787,15-83.02,39.907-105.093,61.979c-53.129,53.129-53.129,109.295,0,162.429C66.411,498.719,93.739,512,121.064,512
	s54.648-13.282,81.213-39.846C239.353,435.078,287.269,338.62,277.486,281.349z"/>
<path style="fill:#FF8237;" d="M264.696,147.702c0-1.04-0.186-2.071-0.548-3.047c-15.004-40.688-39.868-82.805-61.872-104.808
	c-53.129-53.129-109.299-53.129-162.429,0c-53.129,53.134-53.129,109.299,0,162.429c31.717,31.717,115.255,75.781,174.412,76.513
	c10.809,0.134,17.412-0.539,22.091-1.579c1.462-0.325,24.445-22.625,24.445-22.625c2.524-1.627,4.048-4.428,4.043-7.435
	L264.696,147.702z"/>
<path style="fill:#E66E32;" d="M258.478,242.71l-56.706-97.213c-2.46-4.208-7.858-5.636-12.086-3.18
	c-4.215,2.46-5.639,7.871-3.18,12.086l44.223,75.812l-76.384-43.746c-4.229-2.42-9.632-0.958-12.061,3.275
	c-2.425,4.238-0.958,9.636,3.275,12.061l106.051,60.736c1.385,0.794,2.895,1.17,4.385,1.17c3.063,0,6.046-1.596,7.677-4.444
	C266.095,255.03,259.22,243.983,258.478,242.71z"/>
<path style="fill:#FF963C;" d="M472.154,39.848c-53.129-53.129-109.299-53.129-162.429,0C277.793,71.78,231.906,156.44,233.23,216.4
	c0.539,24.411,11.356,38.127,22.098,39.575l109.188,8.363c0.224,0.018,0.449,0.025,0.673,0.025c1.048,0,2.093-0.186,3.081-0.557
	c40.356-15.022,82.101-39.747,103.884-61.53C525.283,149.148,525.283,92.981,472.154,39.848z"/>
<g>
	<path style="fill:#FF8237;" d="M369.72,189.746c-2.42-4.233-7.828-5.696-12.061-3.275l-76.387,43.748l44.226-75.814
		c2.46-4.216,1.036-9.627-3.18-12.086c-4.224-2.456-9.623-1.027-12.086,3.18l-57.068,97.831c-0.671,1.15-6.327,8.864-6.753,9.109
		l-100.851,57.759c-4.233,2.425-5.7,7.823-3.275,12.061c1.632,2.848,4.613,4.444,7.677,4.444c1.489,0,2.999-0.376,4.385-1.17
		l76.384-43.747l-44.223,75.813c-2.46,4.216-1.036,9.627,3.18,12.086c1.403,0.815,2.934,1.204,4.444,1.204
		c3.042,0,5.998-1.571,7.642-4.385l56.706-97.213c1.164-1.995,1.916-6.749,1.916-6.749l106.051-60.736
		C370.678,199.381,372.145,193.983,369.72,189.746z"/>
	<path style="fill:#FF8237;" d="M472.154,309.726c-37.033-37.042-145.258-91.771-201.964-72.405c-0.548,0.19-1.075,0.432-1.575,0.72
		l-13.393,7.778l5.462-0.071c3.733,0.013,7.534,2.589,8.618,6.434l7.979,28.251c0.086,0.302,0.156,0.609,0.208,0.915
		c5.032,29.459-5.247,69.261-21.42,106.042c14.96,33.911,35.266,66.371,53.659,84.763c26.565,26.565,53.888,39.846,81.213,39.846
		c27.325,0,54.652-13.282,81.217-39.846C525.283,419.022,525.283,362.855,472.154,309.726z"/>
</g>
<path style="fill:#E66E32;" d="M366.445,310.196l-96.343-55.178l7.177,25.416c0.086,0.302,0.156,0.609,0.208,0.915
	c1.547,9.056,1.513,19.162,0.446,29.789l32.298,55.367c1.644,2.814,4.6,4.385,7.642,4.385c1.51,0,3.042-0.389,4.444-1.204
	c4.216-2.46,5.639-7.871,3.18-12.086l-44.225-75.814l76.386,43.748c1.385,0.794,2.895,1.17,4.385,1.17
	c3.063,0,6.046-1.596,7.677-4.444C372.145,318.02,370.678,312.621,366.445,310.196z"/>
<path style="fill:#DCDC50;" d="M272.357,243.723c-0.042,0-0.081,0.012-0.124,0.012c1.544-2.746,2.498-5.87,2.498-9.246
	c0-10.49-8.504-18.994-18.994-18.994s-18.994,8.504-18.994,18.994c0,3.386,0.96,6.52,2.512,9.273
	c-10.306,0.212-18.604,8.598-18.604,18.954c0,10.49,8.504,18.994,18.994,18.994c7.01,0,13.065-3.84,16.356-9.49
	c3.292,5.649,9.346,9.49,16.356,9.49c10.49,0,18.994-8.504,18.994-18.994S282.847,243.723,272.357,243.723z"/>
<g>
</g>
<g>
</g>
<g>
</g>
<g>
</g>
<g>
</g>
<g>
</g>
<g>
</g>
<g>
</g>
<g>
</g>
<g>
</g>
<g>
</g>
<g>
</g>
<g>
</g>
<g>
</g>
<g>
</g>
</svg>
